<svg width="24" height="24" viewBox="0 0 24 24" fill="none" xmlns="http://www.w3.org/2000/svg">
<path d="M12 24C15.35 24 18.1875 22.8375 20.5125 20.5125C22.8375 18.1875 24 15.35 24 12C24 8.65 22.8375 5.8125 20.5125 3.4875C18.1875 1.1625 15.35 0 12 0C10.275 0 8.625 0.35625 7.05 1.06875C5.475 1.78125 4.125 2.8 3 4.125V0H-9.53674e-07V10.5H10.5V7.5H4.2C5 6.1 6.09375 5 7.48125 4.2C8.86875 3.4 10.375 3 12 3C14.5 3 16.625 3.875 18.375 5.625C20.125 7.375 21 9.5 21 12C21 14.5 20.125 16.625 18.375 18.375C16.625 20.125 14.5 21 12 21C10.075 21 8.3375 20.45 6.7875 19.35C5.2375 18.25 4.15 16.8 3.525 15H0.374999C1.075 17.65 2.5 19.8125 4.65 21.4875C6.8 23.1625 9.25 24 12 24Z" fill="#202325"/>
</svg>
