<svg width="31" height="30" viewBox="0 0 31 30" fill="none" xmlns="http://www.w3.org/2000/svg">
<path d="M4.98047 22.0312C3.28125 22.0312 1.875 23.4375 1.875 25.1367C1.875 26.8359 3.28125 28.2422 4.98047 28.2422C6.67969 28.2422 8.08594 26.8359 8.08594 25.1367C8.08594 23.4375 6.67969 22.0312 4.98047 22.0312ZM4.98047 26.4844C4.21875 26.4844 3.63281 25.8984 3.63281 25.1367C3.63281 24.4336 4.21875 23.8477 4.98047 23.8477C5.68359 23.8477 6.26953 24.4336 6.26953 25.1367C6.26953 25.8984 5.68359 26.4844 4.98047 26.4844ZM19.9805 22.0312C18.2812 22.0312 16.875 23.4375 16.875 25.1367C16.875 26.8359 18.2812 28.2422 19.9805 28.2422C21.6797 28.2422 23.0859 26.8359 23.0859 25.1367C23.0859 23.4375 21.6797 22.0312 19.9805 22.0312ZM19.9805 26.4844C19.2188 26.4844 18.6328 25.8984 18.6328 25.1367C18.6328 24.4336 19.2188 23.8477 19.9805 23.8477C20.6836 23.8477 21.2695 24.4336 21.2695 25.1367C21.2695 25.8984 20.6836 26.4844 19.9805 26.4844ZM23.7305 3.51562L23.2031 7.03125H0L1.93359 21.2109H22.9688L24.8438 8.02734L25.2539 5.27344H30.1172V3.51562H23.7305ZM21.4453 19.4531H3.51562L1.99219 8.84766H22.9102L21.4453 19.4531ZM19.5117 17.6367H5.39062V10.6641H7.14844V15.8789H17.7539V10.6641H19.5117V17.6367ZM7.14844 5.21484H5.39062V1.75781H19.5117V5.15625H17.7539V3.51562H7.14844V5.21484Z" fill="#CED4DA"/>
</svg>
