<svg width="20" height="20" viewBox="0 0 20 20" fill="none" xmlns="http://www.w3.org/2000/svg">
<path d="M8.00684 20C7.44694 20 6.97168 19.8047 6.58105 19.4141C6.19043 19.0234 5.99512 18.5547 5.99512 18.0078C5.99512 17.4479 6.19043 16.9727 6.58105 16.582C6.97168 16.1914 7.44694 15.9961 8.00684 15.9961C8.55371 15.9961 9.02246 16.1914 9.41308 16.582C9.80371 16.9727 9.99902 17.4479 9.99902 18.0078C9.99902 18.5547 9.80371 19.0234 9.41308 19.4141C9.02246 19.8047 8.55371 20 8.00684 20ZM8.00684 16.9922C7.72038 16.9922 7.47949 17.0898 7.28418 17.2852C7.08887 17.4805 6.99121 17.7214 6.99121 18.0078C6.99121 18.2812 7.08887 18.5156 7.28418 18.7109C7.47949 18.9062 7.72038 19.0039 8.00684 19.0039C8.28027 19.0039 8.51465 18.9062 8.70996 18.7109C8.90527 18.5156 9.00293 18.2812 9.00293 18.0078C9.00293 17.7214 8.90527 17.4805 8.70996 17.2852C8.51465 17.0898 8.28027 16.9922 8.00684 16.9922ZM14.999 20C14.4521 20 13.9834 19.8047 13.5928 19.4141C13.2021 19.0234 13.0068 18.5547 13.0068 18.0078C13.0068 17.4479 13.2021 16.9727 13.5928 16.582C13.9834 16.1914 14.4521 15.9961 14.999 15.9961C15.5459 15.9961 16.0146 16.1914 16.4053 16.582C16.7959 16.9727 16.9912 17.4479 16.9912 18.0078C16.9912 18.5547 16.7959 19.0234 16.4053 19.4141C16.0146 19.8047 15.5459 20 14.999 20ZM14.999 16.9922C14.7256 16.9922 14.4912 17.0898 14.2959 17.2852C14.1006 17.4805 14.0029 17.7214 14.0029 18.0078C14.0029 18.2812 14.1006 18.5156 14.2959 18.7109C14.4912 18.9062 14.7256 19.0039 14.999 19.0039C15.2725 19.0039 15.5068 18.9062 15.7021 18.7109C15.8975 18.5156 15.9951 18.2812 15.9951 18.0078C15.9951 17.7214 15.8975 17.4805 15.7021 17.2852C15.5068 17.0898 15.2725 16.9922 14.999 16.9922ZM17.5381 4.47266C17.4079 4.31641 17.2549 4.19922 17.0791 4.12109C16.9033 4.04297 16.7113 4.00391 16.5029 4.00391H4.25684L4.15918 3.39844C4.09408 3.00781 3.90202 2.67578 3.58301 2.40234C3.264 2.12891 2.90267 1.99219 2.49902 1.99219H1.50293C1.3597 1.99219 1.23926 2.04102 1.1416 2.13867C1.04395 2.23633 0.995117 2.35677 0.995117 2.5C0.995117 2.64323 1.04395 2.76367 1.1416 2.86133C1.23926 2.95898 1.3597 3.00781 1.50293 3.00781H2.49902C2.65527 3.00781 2.7985 3.06315 2.92871 3.17383C3.05892 3.28451 3.13704 3.41797 3.16309 3.57422L4.84277 13.5938C4.90788 13.9844 5.09993 14.3164 5.41894 14.5898C5.73796 14.8633 6.09928 15 6.50293 15H16.5029C16.6331 15 16.7471 14.9512 16.8447 14.8535C16.9424 14.7559 16.9912 14.6354 16.9912 14.4922C16.9912 14.362 16.9424 14.248 16.8447 14.1504C16.7471 14.0527 16.6331 14.0039 16.5029 14.0039H6.50293C6.34668 14.0039 6.20019 13.9453 6.06348 13.8281C5.92676 13.7109 5.84538 13.5807 5.81934 13.4375L5.58496 11.9531L15.5459 11.0938C15.9365 11.0547 16.2881 10.8919 16.6006 10.6055C16.9131 10.319 17.0954 9.98047 17.1475 9.58984L17.8311 5.56641C17.8571 5.37109 17.8473 5.17578 17.8018 4.98047C17.7562 4.78516 17.6683 4.61589 17.5381 4.47266ZM16.835 5.41016L16.1709 9.43359C16.1449 9.58984 16.0602 9.73307 15.917 9.86328C15.7738 9.99349 15.624 10.0716 15.4678 10.0977L5.40918 10.957L4.41309 5H16.5029C16.555 5 16.6071 5.00977 16.6592 5.0293C16.7113 5.04883 16.7503 5.07812 16.7764 5.11719C16.8024 5.15625 16.8219 5.19857 16.835 5.24414C16.848 5.28971 16.848 5.34505 16.835 5.41016Z" fill="#202325"/>
</svg>
